<?xml version="1.0" encoding="UTF-8"?>
<svg id="Layer_1" data-name="Layer 1" xmlns="http://www.w3.org/2000/svg" version="1.1" viewBox="0 0 200 122.8">
  <defs>
    <style>
      .cls-1 {
        fill: #b9d9eb;
      }

      .cls-1, .cls-2, .cls-3 {
        stroke-width: 0px;
      }

      .cls-2, .cls-3 {
        fill: #000;
      }

      .cls-3 {
        fill-rule: evenodd;
      }
    </style>
  </defs>
  <path class="cls-3" d="M1.2,94.8c-.8,0-1.2-.4-1.2-1.4v-18.1c0-.9.4-1.4,1.2-1.4h5.5c2.1,0,3.8.6,5.2,1.9,1.4,1.3,2.1,2.9,2.1,5v7.3c0,2-.7,3.7-2.1,4.9-1.4,1.2-3.1,1.9-5.2,1.9H1.2ZM4.3,91.1h2.4c1.8,0,2.9-1.3,2.9-3.3v-6.9c0-2-1.1-3.3-2.9-3.3h-2.4s0,13.5,0,13.5Z"/>
  <path class="cls-2" d="M23,82.1h6c.7,0,1.1.6,1.1,1.8s-.4,1.8-1.1,1.8h-6v5.3h6.9c.7,0,1.1.6,1.1,1.9s-.4,1.8-1.1,1.8h-10.1c-.7,0-1.1-.4-1.1-1.3v-18.2c0-.9.4-1.3,1.1-1.3h10c.7,0,1.1.6,1.1,1.8s-.4,1.8-1.1,1.8h-6.8v4.6h0Z"/>
  <path class="cls-2" d="M39.5,93.7c0,.8-.7,1.2-2.2,1.2s-2.2-.4-2.2-1.2v-13.4c0-2,.7-3.7,2.1-5,1.4-1.2,3.1-1.9,5.2-1.9s3.8.6,5.2,1.9c1.4,1.3,2.1,2.9,2.1,5v13.4c0,.8-.7,1.2-2.2,1.2s-2.2-.4-2.2-1.2v-13.2c0-2-1.2-3.4-3-3.4s-3,1.3-3,3.4v13.2h0Z"/>
  <path class="cls-2" d="M59.1,93.7c0,.8-.7,1.2-2.2,1.2s-2.2-.4-2.2-1.2v-18.9c0-.8.7-1.3,2.2-1.3s2.2.4,2.2,1.3v18.9ZM58.6,70.1c0,.8-.6,1.4-1.6,1.4s-1.6-.5-1.6-1.4v-1c0-.8.6-1.4,1.6-1.4s1.6.5,1.6,1.4v1Z"/>
  <path class="cls-2" d="M68.2,91.1h8c.7,0,1.1.6,1.1,1.8s-.4,1.9-1.1,1.9h-11.4c-.7,0-1.1-.4-1.1-1.3v-1.3c0-1.8.3-3.2.8-4.4.6-1.2,1.6-2.5,3.2-3.9,1.8-1.7,3-2.9,3.6-3.7.6-.8.9-1.6.9-2.2v-.4h-7.3c-.7,0-1.1-.6-1.1-1.8s.4-1.8,1.1-1.8h10.7c.7,0,1.1.4,1.1,1.3v1.3c0,1.7-.3,3.2-.8,4.4-.6,1.2-1.6,2.5-3.2,3.9-1.8,1.6-3,2.9-3.6,3.7-.6.8-.9,1.5-.9,2.2v.4h0Z"/>
  <path class="cls-2" d="M94.9,82.9c.1-.2.3-.4.7-.6l1.9-1.3c1.5-1,2.2-2.6,2.2-4.8v-1.3c0-.8.7-1.3,2.2-1.3s2.2.4,2.2,1.3v1.2c0,3.1-1,5.6-3.1,7.3,2.6,2.5,3.7,5.2,3.7,8.9v1.4c0,.8-.7,1.2-2.2,1.2s-2.2-.4-2.2-1.2v-.9c0-3.1-.8-5.2-2.8-7l-1.6,1c-.7.4-1,.8-1,1.2v5.7c0,.8-.7,1.2-2.2,1.2s-2.2-.4-2.2-1.2v-18.9c0-.8.7-1.3,2.2-1.3s2.2.4,2.2,1.3v8h0Z"/>
  <path class="cls-3" d="M119.3,87.8h-5.9v5.9c0,.8-.7,1.2-2.2,1.2s-2.2-.4-2.2-1.2v-13.4c0-2,.7-3.7,2.1-5,1.4-1.2,3.1-1.9,5.2-1.9s3.8.6,5.2,1.9c1.4,1.3,2.1,2.9,2.1,5v13.4c0,.8-.7,1.2-2.2,1.2s-2.2-.4-2.2-1.2v-5.9h0ZM119.3,84.1v-3.6c0-2-1.2-3.4-3-3.4s-3,1.3-3,3.4v3.6h5.9Z"/>
  <path class="cls-3" d="M129.8,94.8c-.8,0-1.2-.4-1.2-1.4v-18.1c0-.9.4-1.4,1.2-1.4h6.6c1.8,0,3.2.5,4.3,1.6,1.1,1.1,1.6,2.4,1.6,4s-.8,3.4-2.4,4.4c1.9,1,2.9,2.6,2.9,4.9s-.6,3.1-1.7,4.2c-1.1,1.2-2.7,1.8-4.7,1.8h-6.6ZM133,82.2h2.9c1.4,0,2.2-.9,2.2-2.3s-.8-2.3-2.2-2.3h-2.9v4.6ZM133,91.1h3.1c1.6,0,2.5-1.1,2.5-2.6s-.9-2.6-2.5-2.6h-3.1v5.2Z"/>
  <path class="cls-2" d="M151.5,88.1c0,2.1,1.2,3.4,3,3.4s3-1.3,3-3.4v-13.2c0-.8.7-1.3,2.2-1.3s2.2.4,2.2,1.3v13.4c0,2.1-.7,3.7-2.1,5-1.4,1.2-3.1,1.9-5.2,1.9s-3.8-.6-5.2-1.9c-1.4-1.3-2.1-2.9-2.1-5v-13.4c0-.8.7-1.3,2.2-1.3s2.2.4,2.2,1.3v13.2h0Z"/>
  <path class="cls-2" d="M176.6,86.9h-2c-.7,0-1.1-.6-1.1-1.7s.4-1.7,1.1-1.7h5.1c.8,0,1.3.4,1.3,1.3v3.6c0,2-.7,3.7-2.1,4.9-1.4,1.2-3.1,1.9-5.2,1.9s-3.8-.6-5.2-1.9c-1.4-1.3-2.1-2.9-2.1-5v-7.9c0-2,.7-3.7,2.1-5,1.4-1.2,3.1-1.9,5.2-1.9s3.8.6,5.2,1.8c1.4,1.2,2.1,2.8,2.1,4.7v.3c0,.8-.7,1.2-2.2,1.2s-2.2-.4-2.2-1.2h0c0-1.7-1.1-3.1-3-3.1s-2.9,1.3-2.9,3.3v7.7c0,2,1.2,3.3,2.9,3.3s3-1.3,3-3.3v-1.2h0ZM169.5,68c0-.6.5-.9,1.5-.9s1.5.3,1.5.8v.3c0,.8.3,1.2.9,1.2s.9-.4.9-1.2v-.3c0-.6.5-.8,1.5-.8s1.5.3,1.5.9h0c0,2.6-1.8,4-4,4s-3.9-1.4-3.9-3.9h0Z"/>
  <path class="cls-2" d="M189.7,88.1c0,2.1,1.2,3.4,3,3.4s3-1.3,3-3.4v-13.2c0-.8.7-1.3,2.2-1.3s2.2.4,2.2,1.3v13.4c0,2.1-.7,3.7-2.1,5-1.4,1.2-3.1,1.9-5.2,1.9s-3.8-.6-5.2-1.9c-1.4-1.3-2.1-2.9-2.1-5v-13.4c0-.8.7-1.3,2.2-1.3s2.2.4,2.2,1.3v13.2h0Z"/>
  <path class="cls-2" d="M74.2,114.7v-6c0-.4.3-.7,1-.7s1,.2,1,.7v14c0,.4-.3.7-1,.7s-1-.2-1-.7v-6.3h-5.3v6.3c0,.4-.3.7-1,.7s-1-.2-1-.7v-14c0-.4.3-.7,1-.7s1,.2,1,.7v6h5.3Z"/>
  <path class="cls-3" d="M82.1,112.9c0-1.5.5-2.7,1.4-3.6s2.1-1.3,3.5-1.3,2.6.4,3.5,1.3c.9.9,1.4,2.1,1.4,3.6v5.7c0,1.5-.5,2.7-1.4,3.6-.9.9-2.1,1.3-3.5,1.3s-2.6-.4-3.5-1.3-1.4-2.1-1.4-3.6v-5.7ZM89.9,112.9c0-2-1.2-3.2-2.9-3.2s-2.9,1.2-2.9,3.2v5.6c0,2,1.2,3.2,2.9,3.2s2.9-1.2,2.9-3.2v-5.6Z"/>
  <path class="cls-2" d="M100.8,110h-3.4c-.4,0-.6-.3-.6-.9s.2-.9.6-.9h8.9c.4,0,.6.3.6.9s-.2.9-.6.9h-3.4v12.8c0,.4-.4.7-1,.7s-1-.2-1-.7v-12.8h0Z"/>
  <path class="cls-2" d="M112.8,123.3c-.4,0-.6-.2-.6-.7v-13.6c0-.5.2-.7.6-.7h7c.4,0,.6.3.6.9s-.2.9-.6.9h-5.5v4.6h5c.4,0,.6.3.6.9s-.2.9-.6.9h-5v5.1h5.6c.4,0,.6.3.6.9s-.2.9-.6.9h-7.1Z"/>
  <path class="cls-2" d="M126,108.7c0-.4.3-.7,1-.7s1,.2,1,.7v12.8h5.8c.4,0,.6.3.6.9s-.2.9-.6.9h-7.2c-.4,0-.6-.2-.6-.7v-13.8h0Z"/>
  <path class="cls-1" d="M97.2,30.9c.6,3,4.9,3,5.5,0l4.4-22.2c.4-2.2-.1-4.4-1.5-6.1-1.4-1.7-3.5-2.7-5.7-2.7s-4.3,1-5.7,2.7c-1.4,1.7-1.9,3.9-1.5,6.1l4.4,22.2Z"/>
  <path class="cls-1" d="M90.1,34.2c1.6,2.4,5.3.8,4.8-2l-4.6-23c-.4-2.2-1.8-4-3.7-5-1.9-1-4.2-1.1-6.2-.3h0c-2,.9-3.5,2.5-4.2,4.6-.6,2.1-.3,4.3.9,6.2l13,19.5Z"/>
  <path class="cls-1" d="M89.3,37.7l-14.4-21.5c-1.2-1.8-3.2-3-5.4-3.2-.2,0-.5,0-.7,0-1.9,0-3.8.7-5.2,2.1-1.5,1.6-2.3,3.7-2.1,5.9.2,2.2,1.4,4.1,3.2,5.4l21.5,14.4c2,1.3,4.3-1,3-3h0Z"/>
  <path class="cls-1" d="M136.4,15.1c-1.4-1.4-3.2-2.1-5.2-2.1s-.5,0-.7,0c-2.2.2-4.1,1.4-5.4,3.2l-14.4,21.5c-1.3,2,1,4.3,3,3l21.5-14.4c1.8-1.2,3-3.2,3.2-5.4.2-2.2-.5-4.3-2.1-5.9h0Z"/>
  <path class="cls-1" d="M109.9,34.2l13-19.5c1.2-1.8,1.6-4.1.9-6.2-.6-2.1-2.2-3.8-4.2-4.6h0c-.9-.4-1.9-.6-2.8-.6s-2.4.3-3.4.9c-1.9,1-3.3,2.9-3.7,5l-4.6,23c-.6,2.8,3.2,4.4,4.8,2h0Z"/>
  <path class="cls-1" d="M116.2,44.9h-5.7c-1.6,0-3.1-1-3.6-2.5-1-2.8-3.7-4.8-6.9-4.8s-5.8,2-6.9,4.8c-.5,1.5-2,2.5-3.6,2.5h-5.7c-1.9,0-3.7,1.4-3.8,3.3-.2,2.2,1.5,4,3.6,4h32.8c2.1,0,3.8-1.8,3.6-4-.2-1.9-1.9-3.3-3.8-3.3h0Z"/>
</svg>